<?xml version="1.0" encoding="utf-8"?>
<!-- Generator: Adobe Illustrator 27.0.0, SVG Export Plug-In . SVG Version: 6.00 Build 0)  -->
<svg version="1.1" id="Layer_1" xmlns="http://www.w3.org/2000/svg" xmlns:xlink="http://www.w3.org/1999/xlink" x="0px" y="0px"
	 viewBox="0 0 40 40" style="enable-background:new 0 0 40 40;" xml:space="preserve">
<style type="text/css">
	.st0{fill:#FFFFFF;}
</style>
<g>
	<path class="st0" d="M11.6,39.74c-1,0-1.85-0.35-2.55-1.05C8.35,37.99,8,37.14,8,36.14s0.35-1.85,1.05-2.55
		c0.7-0.7,1.55-1.05,2.55-1.05c1,0,1.85,0.35,2.55,1.05c0.7,0.7,1.05,1.55,1.05,2.55s-0.35,1.85-1.05,2.55
		C13.45,39.39,12.6,39.74,11.6,39.74z M31.6,39.74c-1,0-1.85-0.35-2.55-1.05c-0.7-0.7-1.05-1.55-1.05-2.55s0.35-1.85,1.05-2.55
		c0.7-0.7,1.55-1.05,2.55-1.05s1.85,0.35,2.55,1.05c0.7,0.7,1.05,1.55,1.05,2.55s-0.35,1.85-1.05,2.55
		C33.45,39.39,32.6,39.74,31.6,39.74z M7.8,4h29.08c0.75,0,1.32,0.34,1.71,1.03c0.39,0.68,0.39,1.37,0,2.05l-6.59,11.87
		c-0.42,0.72-0.98,1.28-1.68,1.67C29.82,20.88,29.26,21,28.7,21l-14.61,0l-2.69,5H35v4H11.17c-1.38,0-2.38-0.47-2.99-1.42
		c-0.61-0.95-0.6-2.02,0.02-3.2l3.16-6L3.86,3H0V0h5.92L7.8,4z"/>
</g>
</svg>
