<?xml version="1.0" encoding="utf-8"?>
<!-- Generator: Adobe Illustrator 27.0.0, SVG Export Plug-In . SVG Version: 6.00 Build 0)  -->
<svg version="1.1" id="Layer_1" xmlns="http://www.w3.org/2000/svg" xmlns:xlink="http://www.w3.org/1999/xlink" x="0px" y="0px"
	 viewBox="0 0 48 48" style="enable-background:new 0 0 48 48;" xml:space="preserve">
<path fill="#405357" d="M40,44c0,0-2.2,0-3,0H11c-0.8,0-2.8,0-2.8,0S8,41,8,41c-0.1-1.2-0.2-2.4-0.2-3.5c-0.2-2.7-0.3-5.3-0.5-8
	c-0.2-2.9-0.4-5.7-0.6-8.6C6.5,17.9,6.3,14.9,6,12c0,0,4.2,0,5,0h5.5v-0.5c0-2.1,0.7-3.9,2.2-5.3C20.1,4.7,21.9,4,24,4
	s3.9,0.7,5.3,2.2c1.4,1.4,2.2,3.2,2.2,5.3V12H37c0.8,0,5.2,0,5.2,0 M18,21c0.4,0,0.8-0.1,1.1-0.4c0.3-0.3,0.4-0.6,0.4-1.1V15h-3v4.5
	c0,0.4,0.1,0.8,0.4,1.1C17.2,20.9,17.6,21,18,21z M19.5,12h9v-0.5c0-1.3-0.4-2.3-1.3-3.2C26.3,7.4,25.3,7,24,7s-2.3,0.4-3.2,1.3
	s-1.3,1.9-1.3,3.2V12z M30,21c0.4,0,0.8-0.1,1.1-0.4c0.3-0.3,0.4-0.6,0.4-1.1V15h-3v4.5c0,0.4,0.1,0.8,0.4,1.1
	C29.2,20.9,29.6,21,30,21z"/>
</svg>
